<?xml version="1.0" encoding="UTF-8"?>
<svg version="1.1" viewBox="0 0 1492 1600" width="1280" height="1280" xmlns="http://www.w3.org/2000/svg">
<path transform="translate(928,178)" d="m0 0 5 5 8 17 4 14 1 7v17l-3 14-6 12-10 11-10 7-18 11-7 8-3 8-1 6-1 41-2 13-5 13-7 8-14 7-36 12-14 7-9 7-6 10-3 9-1 10 4 2 3-9 6-10 9-9 14-8 14-4 11-1h9l8 2 4 3v10l-7 31-6 9-8 9-10 7-10 4-5 1h-15l-10 9-2 9v8l-6 12-3 10v30l3 34 5 32 1 8h43l45 1 11 1 4 3 1 4v7h66l21 1 3 2 2 13 3 50 1 43v37l-1 39-4 56-4 33-5 30-5 24-7 27-9 27-7 17-10 19-14 26-12 20-12 19-12 17-13 17-12 14-35 35-11 9-13 11-19 14-13 9-15 10-15 9-4 2h-6l-14-8-19-13-19-14-11-9-13-11-8-7-13-12-26-26-9-11-10-11-10-13-14-19-14-22-11-19-10-19-12-28-9-27-6-23-6-28-5-32-4-38-3-54v-81l3-61 3-35 3-7 2-1 14-1h68v-8l4-6 1-1 63-1 35 1 4-18 6-42 4-33v-11l-6-16-6-7v-11l-3-6v-2l-33-2-10-5-5-5-6-7-8-16-6-18-1-6v-20l4-4h8l15 6 14 6 16 8 9 7 7 10 4 8 5-2 1-2v-7l-4-11-8-9-18-10-42-18-11-6-7-6-6-16-3-14-3-27-2-22-4-10-6-7-12-8-12-9-9-10-7-15-3-16v-11l3-16 5-11 7-11 3-3h2l-3 13-2 19v22l3 11 6 7 20 13 15 10 10 9 4 6 5 17 2 10 1 35 4 12 4 6 8 6 15 5 24 7 12 5 11 6 10 8 5 5 7 8 8 13 5 10v2l10-1 9-20 8-11 9-10 12-9 17-9 24-8 17-6 8-5 5-7 2-8v-11l-1-6v-13l4-18 4-10 5-7 17-13 16-10 12-8 8-6 4-6 2-9v-20l-4-27z" fill="#040303"/>
<path transform="translate(510,665)" d="m0 0h477l2 27 2 44v99l-1 29-3 2h-176l-17-1h-69l-220 1-2-5-1-28v-61l2-46 3-42 2-18z" fill="#978443"/>
<path transform="translate(469,1008)" d="m0 0 4 2 1 1 2 26 4 11 6 8 10 9 20 15 15 12 6 9v9l-5 6-11 7-6 3h-2l6 11 15 23 11 16 13 17 11 13 11 12 12 13 8 8 8 7 8 8 8 7 20 18 11 9 13 11 14 11 13 11 1 4-7 11h-2v4l16 7 20 6 13 2h19l16-3 26-9-2-5-8-13 4-6 16-11 14-11 25-20 11-9 15-13 30-28 13-13 7-8 12-14 12-16 22-33 9-15 2-5-12-5-6-3-4-4v-10l5-8 9-8 19-14 10-8 11-10 6-10 1-3v-12l3-5 6 1 6 10 4 13v10l-2 15 8-2 6-4 6-7 8-14 4-9 4-1 5 5v10l-3 14-8 16-8 10-6 7h-2l-1 3-5 5-4 6 1 7 1 5-11 27-12 25-14 24-12 18-14 19-12 14-7 8-12 13-14 14-8 7-12 11-25 20-12 9-14 10-12 8-13 9-3 2 6 7 4 9-1 7-8 7-16 8-30 10-22 5-16 2h-27l-20-4-24-8-21-10-13-8-3-4-1-3v-8l7-11 1-4-19-13-21-16-10-8-13-11-11-9-10-10-8-7-8-8-7-8-12-13-11-14-8-10-13-18-13-20-8-13-13-23-10-21 1-3 14-9-2-5-6-9-9-8-9-7-10-9-10-13-8-15-5-16v-8l2-3h5l5 8 9 14 9 7 11 4-1-7v-13l5-15 8-14z" fill="#090707"/>
<path transform="translate(928,178)" d="m0 0 5 5 8 17 4 14 1 7v17l-3 14-6 12-10 11-10 7-18 11-7 8-3 8-1 6-1 41-2 13-5 13-7 8-14 7-36 12-14 7-9 7-6 10-3 9-1 10 4 2 3-9 6-10 9-9 14-8 14-4 11-1h9l8 2 4 3v10l-7 31-6 9-8 9-10 7-10 4-5 1h-15l-10 9-2 9v8l-6 12-3 10-1 12h-1l-1-5-3 10h2l4 45 6 39v5h-34l1-6 2-6v-4l-4 10-5 4-1-4 3-10-3 1-1 5h-2v6h-11l-3-1-1-8-5-5-1-3h-2l1-4 12 2h10l9-3 1-2-7 2h-7v-6l6-3h3v-2h3l2-4 3-4-1-6-11-3h-13l-8 1-1 2h-3v2h-3l-2 5-2-2-8-36-2-5 8 43 3 14 6 9 3 6 4 6-4 2-4-4 5 10 10 3 8 8 1 4-1 1h-50l-4-8-1-9 4-27 2-14 1-2 3-32 2-15 1-3-2-4-2-8-5-14-6-7v-11l-3-6v-2l-33-2-10-5-5-5-6-7-8-16-6-18-1-6v-20l4-4h8l15 6 14 6 16 8 9 7 7 10 4 8 5-2 1-2v-7l-4-11-8-9-18-10-42-18-11-6-7-6-6-16-3-14-3-27-2-22-4-10-6-7-12-8-12-9-9-10-7-15-3-16v-11l3-16 5-11 7-11 3-3h2l-3 13-2 19v22l3 11 6 7 20 13 15 10 10 9 4 6 5 17 2 10 1 35 4 12 4 6 8 6 15 5 24 7 12 5 11 6 10 8 5 5 7 8 8 13 5 10v2l10-1 9-20 8-11 9-10 12-9 17-9 24-8 17-6 8-5 5-7 2-8v-11l-1-6v-13l4-18 4-10 5-7 17-13 16-10 12-8 8-6 4-6 2-9v-20l-4-27z" fill="#6C4031"/>
<path transform="translate(725,864)" d="m0 0h69l17 1h30l146 1 2 1v10l-3 33-4 30-30 2-19 4-26 10-15 6-15 5-6 1h-11l-16-3-21-7-25-9-24-7-22-4h-21l-19 5-43 16-24 8-4 1h-10l-20-6-33-10-25-6-20-4-22-3-2-5-3-25-2-26v-18z" fill="#36358C"/>
<path transform="translate(737,940)" d="m0 0 25 2 21 5 36 12 16 6 14 4 6 1h17l15-3 21-8 19-8 18-5 19-2h16v9l-6 30-4 17-32 12-23 10-15 5-14 3h-40l-14-2-24-8-34-13-17-5-16-2-17 4-22 8-27 11-21 6-5 1h-29l-24-5-26-8-21-8-17-7-11-2-5-20-5-31v-6h8l35 6 32 8 38 12 4 1h14l19-5 22-8 29-11 18-5z" fill="#8D8D8C"/>
<path transform="translate(523 1e3)" d="m0 0 9 2 24 10 30 10 24 6 11 2h24l15-3 17-5 20-8 23-9 17-5h14l17 5 23 8 20 8 19 6 20 3h31l18-3 16-5 20-8 24-10 8-2-1 7-9 27-14 29-6 10-6 3-17 6-27 11-16 4h-15l-15-3-20-7-35-12-26-6-8-1h-24l-16 4-30 11-15 6-21 7-5 1h-14l-35-11-28-8-11-3-4-5-10-21-9-24-6-19z" fill="#36368D"/>
<path transform="translate(734,695)" d="m0 0h26l12 3 8 5v3 2l9 2h21l16-3h2v19l-1 69-9 3h-22l-25-4v1h-21v1h18l31 5h16l12-3 6 1 5 6 2 1-1 5-11 3v1h-32l-27-1-1-1h-7l-2-1-1 2h-2l-4-7v-3l-5-1-3 1-5 10v6l1 3h-29l-27 1-4 1h-32l-10-1-1-1v-113l4-3h15l-3 4v2l4-2 4-1v-2l8-1 17 3h20l10-2v-2l-5-1v-3l17-6z" fill="#684740"/>
<path transform="translate(928,178)" d="m0 0 5 5 8 17 4 14 1 7v17l-3 14-6 12-10 11-10 7-18 11-7 8-3 8-1 6-1 41-2 13-5 13-7 8-14 7-36 12-14 7-9 7-6 10-3 9-1 10 4 2 3-9 6-10 9-9 14-8 14-4 11-1h9l8 2 4 3v10l-7 31-6 9-8 9-10 7-10 4h-11l-6-2-7 2-4 4h-2l2-6 6-10 10-28 8-13 7-7 8-5 1-2-8 2-9 2-5 1v2h-3l-1 3h-2l-2 5-6 9h-2l-1 4-4 10-2 4-5 4-1-4-16 4h-10l-10-3-5-2-6 1-10 6-5 2h-13l-3-9-10-2-1-4 1-2v-7l-4-11-8-9-18-10-42-18-11-6-7-6-6-16-3-14-3-27-2-22-4-10-6-7-12-8-12-9-9-10-7-15-3-16v-11l3-16 5-11 7-11 3-3h2l-3 13-2 19v22l3 11 6 7 20 13 15 10 10 9 4 6 5 17 2 10 1 35 4 12 4 6 8 6 15 5 24 7 12 5 11 6 10 8 5 5 7 8 8 13 5 10v2l10-1 9-20 8-11 9-10 12-9 17-9 24-8 17-6 8-5 5-7 2-8v-11l-1-6v-13l4-18 4-10 5-7 17-13 16-10 12-8 8-6 4-6 2-9v-20l-4-27z" fill="#050404"/>
<path transform="translate(734,1075)" d="m0 0h10l24 3 22 6 26 9 22 8 12 3 9 1h9l15-3 18-6 21-9 8-3h3l-1 5-13 23-14 22-16 23-6 7-9 1h-25l-16-2-18-5-41-16-17-5-11-2h-10l-19 5-32 13-19 7-17 4-10 1h-13l-14-1-7-3-9-10-10-14-11-16-13-21-7-14 1-2 39 11 28 9 5 1h11l19-5 25-9 26-10 18-5z" fill="#8C8C8C"/>
<path transform="translate(734,1138)" d="m0 0h17l20 6 19 7 29 11 16 4 7 1 28 1 8 1-2 4-7 8-12 13-17 17-8 7-10 9-14 11-17 13-19 13-17 11-8 5-7-1-22-14-19-14-13-10-13-11-8-7-10-9-12-11-17-17-7-8-8-9v-2h37l20-5 24-9 20-8 18-6z" fill="#36368D"/>
<path transform="translate(991,1111)" d="m0 0 6 1 34 14 3 2-3 10-8 18-8 16-12 22-8 12-12 17-10 13-12 14-9 10-12 13-17 16-10 9-11 9-16 13-16 12-17 12-17 11-17 10-4-1-13-22-10-15 1-4 6-5 19-14 18-14 17-14 11-9 13-12 11-9 32-32 7-8 13-16 13-18 14-21 15-25z" fill="#8B8A89"/>
<path transform="translate(498,1112)" d="m0 0 4 2 13 23 12 19 15 22 13 17 12 14 12 13 7 7v2l4 2v2h2l22 22 8 7 12 11 11 9 10 9 10 8 17 14 9 7v4l-6 9-14 22-5 5-22-14-28-21-14-11-13-11-8-7-10-9-29-29-9-11-11-13-12-16-11-16-10-15-17-29-12-23 1-5 25-13z" fill="#8B8A89"/>
<path transform="translate(687,495)" d="m0 0 7 1 9 3 6 4 6 5 1 4 4 2 10 9 2 1v2l10 3 13-2 10-6 7-6 6-7 8-7 2 1-5 6h-2v3h-2l-1 4-7 7h-2v2l9-3h3v2l11-1v-3h-5l-3-2 1-4 1-2h2v5h3v-7l2-1 2 1v8l-2 10-3 10-1 12h-1l-1-5-3 10h2l4 45 6 39v5h-34l1-6 2-6v-4l-4 10-5 4-1-4 3-10-3 1-1 5h-2v6h-11l-3-1-1-8-5-5-1-3h-2l1-4 12 2h10l9-3 1-2-7 2h-7v-6l6-3h3v-2h3l2-4 3-4-1-6-11-3h-13l-8 1-1 2h-3v2h-3l-2 5-2-2-8-36-2-5 8 43 3 14 6 9 3 6 4 6-4 2-4-4 5 10 10 3 8 8 1 4-1 1h-50l-4-8-1-9 4-27 2-14 1-2 3-32 2-15 1-3-2-4-2-8-5-14-6-7v-11l-3-6v-2z" fill="#6C4032"/>
<path transform="translate(565,181)" d="m0 0h2l-3 13-2 19v22l3 11 6 7 20 13 15 10 10 9 4 6 5 17 2 10 1 35 4 12 4 6 8 6 15 5 24 7 12 5 11 6 10 8 5 5 7 8 8 13 4 8v11l-7 8-5 2h-14l-10-3-1-4 1-2v-7l-4-11-8-9-18-10-42-18-11-6-7-6-6-16-3-14-3-27-2-22-4-10-6-7-12-8-12-9-9-10-7-15-3-16v-11l3-16 5-11 7-11z" fill="#050304"/>
<path transform="translate(683,1344)" d="m0 0 6 1 14 6 18 5 1 1 20 2 17-1 16-3 19-7h5l6 9 9 17 4 4h11l5-3h3v-2h2l1 2v6l-5 5-16 9-21 7-8 3-18 4-17 3h-33l-12-2-13-4-17-6-9-4-13-7-7-4v-2l-3-1-2-5v-6l3-2 8 4h7l4-5 8-15 5-7h2z" fill="#8B8B8B"/>
<path transform="translate(729,704)" d="m0 0h8l7 4 1 2v82l-1 1-20 1-23 4h-22l-9-1-3-3v-87l19 3h20z" fill="#FDFDFD"/>
<path transform="translate(759,704)" d="m0 0 13 1 17 5h21l16-3h2v19l-1 69-9 3h-22l-23-4-24-2 1-83z" fill="#FDFDFD"/>
<path transform="translate(826,706)" d="m0 0h3l1 3h5l1 3 6 1 1-5-2-1h11l3 1v116l-11 1h-28l-1-1h-31l-5 5-15 6-5 1h-24l-15-4-11-6-1-2h32l-2-4 1-9 5-8 5-1 3 2 4 8h3 9l1 1 27 1h15v-1l20-1 8-2 1-4-4-2-3-4-6-1-12 3h-16l-31-5-18-1-1 3-1-3 3-2h15v-1h7l23 4h22l9-2v-69l1-19z" fill="#693E2F"/>
<path transform="translate(851,413)" d="m0 0h9l8 2 4 3v10l-7 31-6 9-8 9-10 7-10 4h-11l-6-2-7 2-4 4h-2l2-6 6-10 10-28 8-13 7-7 8-5 1-2-8 2-9 2-5 1v2h-3l-1 3h-2l-2 5-6 9h-2l-1 4-4 10-2 4-5 4-1-4-16 4h-10l-10-3-5-2-6 1-10 6-5 2h-13l-2-6-1-2 14-1 6-3 5-6 1-9 1 2 10-1 2 4h2l1 4h2v2l10 4h9l10-4h2l1-3 4 2 3-9 6-10 9-9 14-8 14-4z" fill="#6C4031"/>
<path transform="translate(469,1014)" d="m0 0 2 1v18l2 10 6 12 11 11 17 13 16 12 6 5 4 6v6l-3 4h-11l-16-5-5 1-21 12-5-5-6-9-10-9-10-8-12-12-7-10-8-16-4-13 1-3 6 9 5 8 8 8 8 4 10 1h3v-2h2l-3-12v-7l3-10 10-19z" fill="#8C8B8A"/>
<path transform="translate(1023,1029)" d="m0 0 3 1 5 11 1 4v15l-1 14 1 1h11l8-5 9-10 8-16 3-3 1 1-1 11-4 13-5 10-9 12-14 14-4 8v8l1 4-3 1-34-14-6-2-9 1-13 4h-7l-3-4 1-7 7-8 8-7 19-14 10-8 10-10 6-12 1-10z" fill="#8B8B8A"/>
<path transform="translate(740,668)" d="m0 0h19l1 9 11 1 3-6 4-1 14 7-2 6 3 3 7 2 1-5 5 1 11 8 1 3-5 6 1 2 18 1 1 1 10 2v5l-2 1-5-2-1-2-5-1v6h-1v-9h-3v2l-16 3h-21l-9-3v-2l-3-1 2-2-10-5-9-2h-26l-13 3-8 3h-2v3h8l-3 1v2l-10 3h-20l-20-4v12h-1v-11h-4v2l-6 4-3-1 1-3-2-2 10-2 1-1 22-1 2-1-1-5-2-4 5-5 7-5h4l3 4 9-3-1-6-1-3 4-3 9-3h6l2 7 9-1z" fill="#020202"/>
<path transform="translate(711,822)" d="m0 0 29 1v1l-31 1 14 7 12 3h24l13-4 10-5 1-1-7-1v-1h39v3l-1 6 1 4-5 5-7 5-4-1-1-2-10 2v10l-10 4h-8l-1-5-9 1-2 1-2 5h-11l-6-1-2-6-12-2-1 5-7-1-9-5-3-9-6-2-3 3-5-1-9-8 1-7 1-4z"/>
<path transform="translate(868,19)" d="m0 0 11 2 5 2-1 5-1 1-1 8-1 37 16-25 12-18h3l1 27v24h2l2-5 13-23 4-9 2-8 10 2 6 2-2 4-11 18-13 22-12 19-3 1-5-2-2-6-1-17v-18l-5 5-7 11-11 16-1 1h-6l-3-3z" fill="#070506"/>
<path transform="translate(1099,113)" d="m0 0 7 4 6 4-2 5-4 6-11 26-4 10 16-12 14-10 12-9h2l-3 10-9 29-3 9v2l8-7 13-11 8-7 6-8 5 2 9 6-4 4-11 8-22 18-16 13-7 4-5-4 1-9 8-25 2-7-18 13-14 10h-5l-4-4 3-9 17-46 4-14z" fill="#060405"/>
<path transform="translate(16,685)" d="m0 0 16 3 40 4 15 1 1 3-2 10-26 15-16 10-8 4 1 1 16 2 30 2-1 13-22-3-28-3h-14l-8 6-1-5 1-10 3-3 15-8 19-12 13-8 6-4-29-3-22-1-1-4z" fill="#070505"/>
<path transform="translate(673,1525)" d="m0 0 16 1 20 30 12 17 4 6 2 1v-52h13l1 3-2 10-2 39v20h-13l-12-19-13-18-8-12-1 14-1 34-12-1 1-17 2-38v-8l-7-8z" fill="#060405"/>
<path transform="translate(1455,695)" d="m0 0h1l1 16-13 11-8 7-13 12-12 11h-2v2l18-1 22-2 11-2 1 5v8l-57 4-15 2-1-12 5-5 9-7 30-28-41 4-6 1-1-13 2-1h20l37-3 6-3z" fill="#060505"/>
<path transform="translate(575,1509)" d="m0 0 9 1 7 2 6 13 11 23 8 16 3 5v2h2v-7l6-33 1-11 4-1 9 2 1 2-5 16-8 42-1 10-4 1-9-3-4-8-10-21-10-19-3-4-6 37-1 9-13-2 1-5 4-16 7-36-1-7-4-5z" fill="#050404"/>
<path transform="translate(702,457)" d="m0 0 2 2 10 3 3 4v4h13l14-7 3-2 7 1 7 3 5 1h10l16-4 1 4 1 16-1 3-4 1h-16l-18 7-4 1h-8l-13-5-6-3-13-1-18 4-1-4 1-2h3l1-18 2-2v-3z" fill="#AB946E"/>
<path transform="translate(314,1396)" d="m0 0h16l11 4 8 6 6 7 4 9 1 5v8l-3 12-7 11-7 6-8 4-11 2-11-1-10-4-9-7-6-9-3-10v-11l4-12 7-10 9-7zm5 9-10 5-7 8-4 9-1 4v12l4 8 8 7 4 2h14l8-4 7-7 4-8 1-4v-16l-3-6-4-5-6-4-4-1z" fill="#060505"/>
<path transform="translate(396,98)" d="m0 0h18l9 4 9 7 7 10 3 8v17l-6 12-6 7-9 6-11 3h-11l-10-3-8-6-7-8-5-10-1-4v-13l4-11 6-8 7-6zm1 10-8 3-5 4-5 10v13l3 7 6 8 8 6 9 3h8l9-4 5-4 4-8v-14l-6-12-5-5-7-5-6-2z" fill="#060405"/>
<path transform="translate(401,1442)" d="m0 0 6 1 8 4-1 4-8 13-4 7-1 4 6 2 18 9h2l7-14 4-11 6 1 8 3-1 4-11 19-14 28-5 14h-3l-11-6 2-5 6-9 6-11 1-4-9-3-17-8-8 16-4 11h-4l-10-5 2-5 8-13 15-30z" fill="#060404"/>
<path transform="translate(697,7)" d="m0 0h9l2 35 3 27 1 10h-14l-1-31-21 2h-9l4 29v3l-4 1h-10l-1-2v-13l-3-38-3-18 1-1 13-1 1 1 1 30 28-3h2l-2-12-2-18z" fill="#070506"/>
<path transform="translate(687,495)" d="m0 0 7 1 9 3 6 4 6 5 1 4 4 2 10 9 2 1v2l10 3 13-2 10-6 7-6 6-7 8-7 2 1-5 6h-2v3h-2l-1 4-7 7h-2v2l9-3h3v2l11-1v-3h-5l-3-2 1-4 1-2h2v5h3v-7l2-1 2 1v8l-2 10-3 10-1 12h-1l-1-5-5 12-3-1-4-8-1-10-14 1h-36l-4 1-7-2-1-2-5-2-1-4h-3v-2h-2l-3-6-5-6v-11l-3-6v-2z" fill="#FAF9F9"/>
<path transform="translate(1050,1454)" d="m0 0 4 1 5 15 15 33 6 11 2 2-1 4-5 3-5-1-1-2-3 1-7 8-5 4-8 3h-11l-8-5-6-7-9-17-11-23-3-4 1-3 12-5 3 8 11 26 6 11 8 7 9 1 8-4 4-5v-10l-6-15-12-25-3-4v-3z" fill="#050404"/>
<path transform="translate(76,786)" d="m0 0h4v11l-6 1 7 14 1 4v8l-3 8-7 7-10 4-10 1-43 1-1-1v-12h44l11-2 7-6 1-2v-13l-2-5-4-2-7-2h-20l-30 1v-14h54z" fill="#060505"/>
<path transform="translate(1414,524)" d="m0 0 3 2 5 18v12l-4 8-6 5-5 2h-9l-8-4-2-2-4-1-2 5-8 11-9 15-3 1-3-11 3-8 12-19 7-9-22 8-8 3-4-12v-3l13-2 36-11 15-6zm-6 16-22 7-1 2 4 6 6 4h10l7-5 2-6v-7l-1-1z" fill="#070506"/>
<path transform="translate(1390,797)" d="m0 0 9 1 32 1h31v17l-3 13-6 10-5 5-7 5-6 2h-21l-10-5-5-4-6-10-3-9-1-25zm8 13v9l3 9 4 5h2v2l10 5h16l10-5 7-8 4-10v-5l-1-1z" fill="#060505"/>
<path transform="translate(1353,386)" d="m0 0 3 3 7 15 2 6v10l-5 8-6 5-5 2-9-1-9-5-2 6-7 14-7 17-3-3-3-7v-6l9-22 5-10-6 2-15 9-4 3h-2l-6-10v-3l21-9 22-12 17-10zm-1 15-24 12 2 5 7 5h10l7-6 1-2v-13z" fill="#060505"/>
<path transform="translate(115,409)" d="m0 0 9 1 6 4 4 5 2 6v7l29-6 7-2h4l-1 5-5 7-21 6-16 3 3 3 23 9 1 3-4 8-1 3-6-2-9-6-16-8-24-11-10-3-1-3 7-14 7-9 8-5zm-3 12-6 3-5 5 1 3 24 12h2v-14l-5-7-4-2z" fill="#060405"/>
<path transform="translate(1110,1422)" d="m0 0h13l9 6 4 8v9l-3 5v4l19 8 16 5v3l-7 4h-9l-22-7-10-4 7 11 10 13-1 3-6 3-2 2-4-1-8-15-12-19-7-11-8-11-2-3 10-7zm-2 9-6 3 2 5 11 17 3 3 6-8 1-2v-8l-4-6-3-3-3-1z" fill="#060505"/>
<path transform="translate(705,578)" d="m0 0h3l2 5 3 17 2 5 4 13 6 13 2 1 5 10 10 3 8 8 1 4-1 1h-50l-4-8-1-9 4-27 2-14 1-2 2-18z" fill="#AC9471"/>
<path transform="translate(943,1497)" d="m0 0h13l6 3 5 6 2 5v6l-5 10 7 1 6 4 5 9v9l-6 9-9 6-18 6h-3l-5-21-12-38-4-7 1-3zm3 7-6 2 2 10 4 12 6-1 5-6v-9l-4-6zm5 29-2 1 1 7 6 19h5l8-7 1-2v-8l-3-6-7-4z" fill="#070506"/>
<path transform="translate(1194,1358)" d="m0 0 5 1 5 5-1 3-11 3-8 6-5 7-1 3v13l4 9 7 8 9 6 4 1h10l8-4 5-4 3-5-1-4-7-9-8-7 4-4h2v-2h2l2-4 5 5 7 10 9 10-1 4-7 9-7 7-11 7-7 2h-14l-9-3-9-7-7-10-4-10v-15l4-11 7-9 7-6z" fill="#070606"/>
<path transform="translate(873,353)" d="m0 0h5l2 2v10l-6 12-10 11-13 8-16 5-22 4-17 6-8 5h-3v2l-8 7-9 9-9 14h-2l2-8 6-11 9-11 6-8 11-8 4-3 14-7 33-11 14-8 9-8 6-10z" fill="#A78E6C"/>
<path transform="translate(845,710)" d="m0 0h5l2 2 1 26v82l-1 1-39 1h-59l-2 1h-12l-2-3 1-9 5-8 5-1 3 2 4 8h3 9l1 1 27 1h32l12-1 1-2 3-1 1-13z" fill="#A14736"/>
<path transform="translate(48,539)" d="m0 0 4 2 13 11 16 12 18 14 11 8v6l-2 3-3 1-58 5-13 3h-3l4-17 4-1 2 1h19l19-1h11v-2l-4-2-19-14-15-10-7-3 1-7z" fill="#060505"/>
<path transform="translate(1366,610)" d="m0 0 10 3 29 8 39 9v3l-17 13-14 10-17 13-11 9-3 3h-2l-3-13v-3l16-8 4-3-4-23-1-3-20-1-3-2zm37 20 1 9 2 9 9-5 9-6v-3z" fill="#070505"/>
<path transform="translate(514,1490)" d="m0 0 3 1 4 41 4 31 2 7-6-1-11-4 1-5v-18l-21-7h-5l-7 10-4 7-6-1-10-4 5-5 10-9 12-12 1-2h2l2-4 21-21zm-7 20-9 9-5 7 17 6v-20l-1-2z" fill="#060404"/>
<path transform="translate(647,710)" d="m0 0h4l-1 91 1 2v8l5 3h24l42-1 1-1h7l7 2v7l-1 1h-52l-5-1-19 1-18-1-1-1v-106l3-3z" fill="#A24837"/>
<path transform="translate(1214,206)" d="m0 0h3l-1 6-13 37-8 25-3 9-6-5v-2l-4-2-1-4 5-8 4-8-1-4-16-16-6 1-10 6-2 2h-5l-4-5-5-5 9-3 20-7 40-15zm-12 14-21 8 6 7 6 6 3-1 7-18z" fill="#080607"/>
<path transform="translate(612,349)" d="m0 0 6 1 8 16 6 8 7 6 8 4 18 4 19 5 16 8 11 8 8 8 10 14 3 9v5l-1 3 1 7-4-2-6-12 1-2 4 2v3h2l-2-7-6-10-13-13-12-8-15-5-12-2-22-2-14-3-10-6-8-9-5-10-2-8v-9z" fill="#A38968"/>
<path transform="translate(1314,323)" d="m0 0h2l6 10 14 21-1 2-11 2-7-18-6 1-14 10 7 11 4 6-1 3h-11l-4-10-1-5-7 3-14 9 2 5 11 12 6 4v2l-13 3-6-7-15-24 2-3 14-7 21-14 17-12z" fill="#070606"/>
<path transform="translate(74,472)" d="m0 0 5 3 4 3-1 5-7 10-2 6 10 3 12 5 2-8 4-12h4l6 6-2 5-5 7-1 4 11 5 11 4 4-19v-10l11 7 1 4-6 16-7 17-6-2-23-10-27-10-11-3 1-6 9-23z" fill="#070505"/>
<path transform="translate(810,1524)" d="m0 0h7l-1 5-3 6-11-1h-9l1 23 4-1 19-1-1 5-4 6-18-1 1 2 1 13v10l13-3 11-3 6-3-1 6-3 8-12 2-25 2-1-1v-13l-4-48-2-10 5-1z" fill="#080606"/>
<path transform="translate(747,7)" d="m0 0h23l15 1v3l-5 8-15-3h-5l-1 21 2 1 20 1-1 5-4 6-18-4v12l-1 13 22-2 6-3h2l-1 5-4 8h-36l-2-1 1-13 1-19z" fill="#070506"/>
<path transform="translate(877,1513)" d="m0 0h9l3 3 2 10-9-3-9 1-5 5 1 7 7 6 16 8 5 5 3 5 1 4v7l-4 8-7 6-7 3h-16l-3-5-1-8 5 2 4 2h7l7-4 2-3v-7l-5-6-19-9-6-7-2-5v-8l3-7 5-5 8-4z" fill="#070505"/>
<path transform="translate(1374,463)" d="m0 0h11l7 4 6 7 4 10v5l-7 5-4 1-1-3 1-2v-8l-4-6-1-1h-8l-5 5-4 17-5 10-9 6-8 1-9-3-7-6-4-8-2-6v-7l8-5 4-1-2 12 3 8 5 3h8l4-3 6-22 5-8 5-4z" fill="#070505"/>
<path transform="translate(143,340)" d="m0 0h6l6 4v2l-8 5-4 5 1 8 5 4 8-1 16-6 4-1h7l9 4 6 7 2 9-2 10-10 13-6 1-8-5 1-2 9-4 4-5 1-7-3-6-4-2-10 1-12 5-12 2-8-3-6-7-2-5v-10l6-12z" fill="#070505"/>
<path transform="translate(1027,75)" d="m0 0 6 1 29 15 11 6-1 5-4 5-4-1-11-10-3 3-17 33-7 15-3 6-13-7 2-4 9-14 15-29 5-10-16-4-5-1 2-4z" fill="#060506"/>
<path transform="translate(483,55)" d="m0 0h4l-1 10-7 3-13 3 8 20 8-1 13-6 1 5-1 7-6 2-10 2 3 9 7 14 4 7-11 5-4-1-6-18-11-25-8-16-2-3v-3l30-13z" fill="#060505"/>
<path transform="translate(289,173)" d="m0 0h2l3 19 6 23 4 6 11 11 8 6v3l-6 5-2 3-4-1-8-11-9-10-4-3-27-9-12-3v-4l8-7 5 1 14 6 10 4-2-10-4-15-1-7z" fill="#060505"/>
<path transform="translate(612,17)" d="m0 0h4v11l-1 1h-18l11 47 5 15-6 2-10 1-1-12-10-48v-2l-14 5-5 3-3-1 1-9 5-3 34-8z" fill="#080606"/>
<path transform="translate(782,571)" d="m0 0h4l2 7 4 36 4 24v5h-34l1-6 4-8 6-16 5-17 2-17z" fill="#978444"/>
<path transform="translate(1258,257)" d="m0 0h6l10 11 8 10 13 16-1 3-6 3-4-1-6-13v-2l-9 5-10 9-14 11-13 12-3 4-4-2-7-8v-2l13-8 16-13 15-12 6-5-6-7-9-6 2-4z" fill="#060505"/>
<path transform="translate(228,232)" d="m0 0h3l4 6-1 4-12 9v2l10 9 8 7 14 12 15 11v3l-7 8-4-1-9-10-11-9-13-12-11-9-5 5-5 9-1 3-4-2-3-5 1-5 12-13 9-11z" fill="#060505"/>
<path transform="translate(264,1343)" d="m0 0 5 1 9 7 6 4 1 4-19 19-7 8-12 13-9 9-7 4-4 1h-8l-12-6v-4l11 1 8-3 9-6 10-10 9-11 12-13 3-3 1-4-5-2-5-4 1-4z" fill="#060505"/>
<path transform="translate(626,413)" d="m0 0h7l15 6 7 4 7 8 6 9 9 20 10 19 4 8v4l-5-1-7-6-6-7-6-9v-3l-3-1-4-10-6-8-3-5-9-10-7-8-2-4-3-1v-3z" fill="#010000"/>
<path transform="translate(661,708)" d="m0 0h3v88l-3 3-5 3-3 2-1-2v-85l1-2h2l2-4 4-1z" fill="#FCFCFC"/>
<path transform="translate(831,709)" d="m0 0 5 1v2h3l4 4v51l-1 37-5-2-6-7z" fill="#FCFCFC"/>
<path transform="translate(734,695)" d="m0 0h26l12 3 8 5v3l-4 1-10-2h-7l-8 4-1 80-1 3h11v1h-16v-85l-5-2-2-1h-8l-9 2-4-1-5-1v-3l17-6z" fill="#907B43"/>
<path transform="translate(750,796)" d="m0 0h18l31 5h16l12-3 6 1 5 6 2 1-1 5-8 2h-25l-39-3-10-2v-2l-4-2-3-5z" fill="#FCFCFC"/>
<path transform="translate(729,796)" d="m0 0h15l-1 6-3 1-2 5-1 1-50 4h-25l-8-3 1-4 8-6 1-2 11 2 6 1h17l22-4z" fill="#FCFCFC"/>
<path transform="translate(655,423)" d="m0 0 10 3 15 8 8 7 8 12 3 6 1 4 2 1-4 1-1 16-1 2h-3l-1 3-5-5-23-46-9-10z" fill="#9F4938"/>
<path transform="translate(981,55)" d="m0 0 7 1 8 3-1 4-5 8-16 39-5 16-4-1-10-4 1-4 8-16 11-26z" fill="#060405"/>
<path transform="translate(173,297)" d="m0 0 4 2 10 9 19 14 13 9 11 6 2 1-1 4-6 9-4-1-8-8-19-14-17-12-12-6 4-7z" fill="#060505"/>
<path transform="translate(24,636)" d="m0 0 10 2 29 6 32 5-1 12-1 2-6-1-22-5-36-6-7-1 1-8z" fill="#070606"/>
<path transform="translate(781,557)" d="m0 0h1l-1 10-5 30-2 11-4 8-4 5-9 7h-2l-1 5h-2v6h-11l-3-1-1-8-5-5-1-3h-2l1-4 12 2h10l9-3 1-2-7 2h-7v-6l6-3h3v-2h3l2-4 5-1 3 2 5-29 4-15z" fill="#080707"/>
<path transform="translate(840,421)" d="m0 0h3l-1 3-9 6-8 9-5 9h-2l-6 12-2 7-5 5-2 6-5 5-5 2-1-19h2l6-9 3-8 2-4h2l2-4 6-10 3-3h3v-2l7-3z" fill="#9F4736"/>
<path transform="translate(730,640)" d="m0 0 2 2 10 3 8 8 1 4-1 1h-50l-4-8v-7h34z" fill="#8C8C8B"/>
<path transform="translate(939,1220)" d="m0 0h7l6 5 2 7-3 7-7 8-5 4-4 2-7-1-5-5-1-9 3-6 7-8z"/>
<path transform="translate(826,706)" d="m0 0h3l2 3 1 88 4 2 1 3 4 1 1-36h1v38h-2l1 7-2 2h-29v-1l20-1 8-2 1-4-4-2-3-4-6-1-12 3h-16l-31-5-18-1-1 3-1-3 3-2h15v-1h7l23 4h22l9-2v-69l1-19z" fill="#7E6B63"/>
<path transform="translate(799,643)" d="m0 0h44l5 4 4 5 1 5h-51l-3-7-1-6z" fill="#8C8C8C"/>
<path transform="translate(597,644)" d="m0 0h38l8 7 2 3v4h-51l-2-2v-10z" fill="#8D8D8C"/>
<path transform="translate(853,418)" d="m0 0h8l2 2v3l-14 9-5 3-1 2-5 3-9 7h-2l-1 3h-2l-1 4-6 17-7 14-7 7h-2l2-6 6-10 10-28 8-13 7-7 13-8z"/>
<path transform="translate(872,1281)" d="m0 0h8l19 6 1 4-2 1-9 1-11 8-1 7-15 12-10 7-5-1-7-10-3-5 1-5h5l8 12 4 1 13-8h3l-2-24z"/>
<path transform="translate(910,1250)" d="m0 0 4 1 3 4v2h6l4 5-4 7-12 12-3 2-4-1-10-11-2-3 1-4 5-5 9-8z"/>
<path transform="translate(856,644)" d="m0 0h35l5 2 5 6 1 7h-42l-8-10v-4z" fill="#36368D"/>
<path transform="translate(764,643)" d="m0 0 23 1 7 5 5 7v3h-42l-5-6-4-4v-4z" fill="#36368D"/>
<path transform="translate(659,643)" d="m0 0h20l7 2 8 8 2 5h-43l-8-11 1-3z" fill="#36368D"/>
<path transform="translate(708,824)" d="m0 0h17l14 1 7 2 6-1 6-2h26l-5 5-15 6-5 1h-24l-15-4-11-6z" fill="#948043"/>
<path transform="translate(703,597)" d="m0 0 3 1 4 2 6 14-1 3-2-1-1 8 2 5 1 3 3 1-2 1v2l-2 1h-14l-4-1 2-16 3-20z" fill="#968344"/>
<path transform="translate(709,549)" d="m0 0 2 4 2 15 6 31 3 14 6 9 3 6 4 6-4 2-3-4-4-1-7-15-4-15-2-6-3-15h-3-1l1-14 2-15z" fill="#6A4135"/>
<path transform="translate(962,1189)" d="m0 0 6 1 1 1v8l10-1 3 1-2 4-3 2-12 2-3 3 1 4 4 3-1 4-2 2-4-1-14-12 2-6 11-13z"/>
<path transform="translate(639,708)" d="m0 0h6l-4 3-1 5h1l1 11v93l7 1-1 3h-10l-1-1v-113z" fill="#683E2F"/>
<path transform="translate(792,508)" d="m0 0 3 1v8l-2 10-3 10-1 12h-1l-1-5-5 12-3-1-4-8-1-10-1-2h2l1-6 8-5v-1l8-1v-3h-5l-3-2 1-4 1-2h2v5h3v-7z" fill="#AB9473"/>
<path transform="translate(574,1239)" d="m0 0 4 1 3 4v20l6-5 4-4 4 2-1 4-7 8-5 5-5-1-2-2v-23h-2l-2 4-6 6-4-1-2-1 1-4z"/>
<path transform="translate(754,705)" d="m0 0 2 1-5 3-1 80-1 3h11v1h-16l1-82 2 3h2v-6z" fill="#8D8D8D"/>
<path transform="translate(622,421)" d="m0 0h1l4 14 3 13 5 15 7 13 6 7v2l5 2 12 4v2h5v1h-13l-10-5-5-5-6-7-8-16-6-18-1-6v-14z" fill="#A38A6A"/>
<path transform="translate(714,1370)" d="m0 0 18 1 5 1-1 4-16-1-1 4 16 1 1 5h-18v5l2 1 18 1v4h-19l-9-3v-10l2-11z"/>
<path transform="translate(644,1301)" d="m0 0 6 1 2 3v9l-2 15h-4l-2-3-1-5-8-6-4-1h-7v-4l14-7z"/>
<path transform="translate(641,707)" d="m0 0h15l-3 4v2l2 2h-2v87h2l3-3 2 1v3l-3 3h-2v4l7 2h35l-1 2-16 1h-24l-5-3-1-1v-9l-1-3 1-83 1-6-9 2-2 5-1-3 3-5z" fill="#7D6358"/>
<path transform="translate(698,499)" d="m0 0 7 4 8 9 10 10v2h-6l-1-2-6-1v2h-10l-7-8v-13l4-1z" fill="#1C1718"/>
<path transform="translate(914,268)" d="m0 0 5 1-2 4-24 15-13 12-9 11h-2v2h-2l-1-5 9-8 3-4-1-2-5-1v-2l27-14 10-6z" fill="#A38564"/>
<path transform="translate(572,264)" d="m0 0 6 2 26 15 10 7 6 7 1 8-3-1-6-8-6-4-13-5-10-6-7-6-5-4z" fill="#A0815E"/>
<path transform="translate(982,1157)" d="m0 0 2 1-2 5-6 10v3h4l6-10 3-3h2l-1 5-5 8-1 5 4 1h2l2-5 7-10h3l-1 5-6 10-7 9-6-2-13-9 1-6 7-11z"/>
<path transform="translate(787,588)" d="m0 0 2 2 4 30 3 18v5h-5l-2-3 1-4h2l-2-7-4-4-3-1v-2l-3 1v-13l2-5 3-13z" fill="#A78E6C"/>
<path transform="translate(501,1145)" d="m0 0 6 2 4 5 4 8v5l-4 1-3-11-1-3-3 1 2 11 2 6-4 4-5 1-5-4-6-11v-8l4-1 1 1 1 10 3 5 4 1-3-13v-7z"/>
<path transform="translate(553,1215)" d="m0 0 4 2 7 7 7 9-2 1-8-7-4-4-4-1 1 5 7 8v3l-4-1-6-7v-2l-6 2 1 4 9 11 1 4-5-2-11-12-3-4v-3l11-9z"/>
<path transform="translate(515,1175)" d="m0 0h8l8 7 5 9v5l-5 3-1-2-1-9-5-6-5-1-6 5 1 7 5 5 9 2-4 5h-6l-8-9-3-6v-7l6-7z"/>
<path transform="translate(790,500)" d="m0 0h3v2l6 1v12l-5 8-1-2 2-12h-3l-1 7h-3v-5h-2l-2 6 8 2v3l-2 1h-9v-2l-7 3h-5v-2l8-7 2-4h2v-3l5-5z" fill="#171415"/>
<path transform="translate(790,403)" d="m0 0h2l-1 4 2 2 5-1v2l-9 5-4 1v2l-8 7-9 9-9 14h-2l2-8 6-11 9-11 6-8z" fill="#A18465"/>
<path transform="translate(702,527)" d="m0 0 1 2h3l1 4 6 2 1 2 9 1 1-1h18v1l-17 1-5 13-4 5-1 4h-2l-4-12-3-5-2-8z" fill="#AA9270"/>
<path transform="translate(938,1226)" d="m0 0 6 1 3 4 1 4-4 7-7 5-6-1-3-4v-8l4-5z" fill="#898686"/>
<path transform="translate(519,1180)" d="m0 0 6 2 5 6 1 9v3l-3 1-9-2-5-5-2-3v-5z" fill="#878382"/>
<path transform="translate(844,716)" d="m0 0h2v81l-1 13-3 1-1-6h2v-88z" fill="#6D483B"/>
<path transform="translate(666,707)" d="m0 0h1v85l-2 6-2 3-4-1 3-4h2v-88z" fill="#5E3E40"/>
<path transform="translate(765,1370)" d="m0 0h8l-2 4-8 1v20h-6l-1-1-2-18-10-1v-3z"/>
<path transform="translate(779,579)" d="m0 0h1v12l-5 20-10 25-1-3 1-6-4 10-5 4-1-4 4-11 7-6 5-7 3-8 3-22z" fill="#6C4031"/>
<path transform="translate(599,1263)" d="m0 0 5 2 11 10 6 5v2l-5-1-4-3-3 1-6 8-5 4-4-2 1-5 9-9-1-5-4-5z"/>
<path transform="translate(737,815)" d="m0 0h1l2 8h-29l-27 1-4 1h-32l1-4h13l18-1 4 1h52z" fill="#6C4031"/>
<path transform="translate(666,792)" d="m0 0 2 4 11 1h22l16-3 8 1 4 2-19 3-12 2h-17l-14-3-2-2z" fill="#71554D"/>
<path transform="translate(782,571)" d="m0 0h4l1 6v8h-2l-2 6h-2v8l-4 11-3 9-1 4h-2v11l-3 2h-3l3-10 6-15 5-20 1-12z" fill="#AE9673"/>
<path transform="translate(762,616)" d="m0 0v3l-2 5-4 3-5 1h-11l-7-2-2-4h-2l1-4 12 2h10l9-3z" fill="#FBFBFB"/>
<path transform="translate(862,416)" d="m0 0 6 1 2 4 1 11-6 27-6 9-8 9-4 3-2-1 10-13 5-9 5-12 2-8v-13l-3-6z" fill="#887259"/>
<path transform="translate(763,601)" d="m0 0 6 1 1 7h-2v3l-5 4h-3l-5 1h-7v-6l6-3h3v-2h3l2-4z" fill="#F8F8F8"/>
<path transform="translate(705,578)" d="m0 0h3l2 5 3 17 2 5 4 13-1 3-9-21-5-1-1-2v-9z" fill="#AE9673"/>
<path transform="translate(723,601)" d="m0 0h5l4 4v2l10 2 1 1v6l-1 1-14-1-5-12z" fill="#F6F6F6"/>
<path transform="translate(757,808)" d="m0 0 49 4 5 1 17 1v1h-32l-27-1-1-1h-7z" fill="#724F44"/>
<path transform="translate(572,264)" d="m0 0 6 2 19 11-1 2-3 1-3 2-8-4-11-9z" fill="#A48966"/>
<path transform="translate(655,423)" d="m0 0 10 3 8 4 1 3-5 1-1 3h2l2 6 2 1 3 7 1 7-3-1-9-19-7-9-4-4z" fill="#9F8062"/>
<path transform="translate(829,1362)" d="m0 0 4 1 4 6-1 3-13 4h-3l-3-4v-3l6-2v-2z" fill="#878689"/>
<path transform="translate(626,1286)" d="m0 0 4 1 1 3-6 8-7 8-5-1 1-5 10-13z"/>
<path transform="translate(885,288)" d="m0 0 6 1-5 5-13 14-2 3h-2v2h-2l-1-5 9-8 3-4-1-4z" fill="#9D825A"/>
<path transform="translate(542,1203)" d="m0 0 5 1-1 5-15 11-4-2 1-4z"/>
<path transform="translate(765,697)" d="m0 0 7 1 8 5v3l-4 1-10-2h-7l-9 2 2-4 6-2 7-1z" fill="#6F483A"/>
<path transform="translate(719,699)" d="m0 0 3 1v1l18-1v4l5 1v2l-8-2h-8l-9 2-4-1-5-1v-3z" fill="#694235"/>
<path transform="translate(851,413)" d="m0 0h9v2l-21 3-13 4-14 7-5 5-2-1 7-7 14-8 14-4z" fill="#1E1715"/>
<path transform="translate(639,708)" d="m0 0h6l-4 3-1 3-1 105h-1v-110z"/>
<path transform="translate(676,433)" d="m0 0 5 2 7 6 8 12 3 6 1 4 2 1-7 1v-2h-2l-1-9h-2l-4-12-10-8z" fill="#59352A"/>
<path transform="translate(754,821)" d="m0 0h15v2l-2 1-13 2-4 2-7-1-4-1-14-1v-1l27-2z" fill="#311D16"/>
<path transform="translate(706,544)" d="m0 0 2 1 1 7-2 3-2 18-2 25-3-3 1-13 4-33z" fill="#161314"/>
<path transform="translate(507,1113)" d="m0 0 9 1 8 2v3l-5 3 1 2-4 1-3-1-6-9z" fill="#7F7576"/>
<path transform="translate(662,705)" d="m0 0h21l-1 2h-3v2l-10-1-3-1v12h-1v-11h-4v2l-6 4-3-1 1-3-2-2 10-2z" fill="#080605"/>
<path transform="translate(915,1262)" d="m0 0 4 1 1 3-6 8-3 2-4-1-2-3 3-5z" fill="#847E7E"/>
<path transform="translate(871,291)" d="m0 0 1 2h6v4l-5 6-8 6-1-2 4-12z" fill="#080607"/>
<path transform="translate(766,793)" d="m0 0h7l23 4-3 2-7 1-18-3-18-1-1 3-1-3 3-2h15z" fill="#746C79"/>
<path transform="translate(745,630)" d="m0 0h8l-1 9h-11l-2-1v-7z" fill="#FDFDFD"/>
<path transform="translate(784,555)" d="m0 0h2l1 10v12h-1v-6h-4l-1 8h-2l1-12 2-10z" fill="#6E4637"/>
<path transform="translate(793,798)" d="m0 0h25l3 1v2l-6 1h-16l-8-1-1-2z" fill="#7A6259"/>
<path transform="translate(652,1360)" d="m0 0 6 1 6 4-1 3-3 2-10-1v-7z" fill="#848083"/>
<path transform="translate(842,767)" d="m0 0h1v38h-2l1 7-2 2h-29v-1l20-1 8-2 1-4-3-1 4-2z" fill="#827B7D"/>
<path transform="translate(867,372)" d="m0 0 1 3-3 2-9 2v2l-7 1-7 2v-3l12-7h2v2l4-2 3 1v-2z" fill="#958145"/>
<path transform="translate(687,495)" d="m0 0 7 1 9 3 6 4 6 5-3 1v3l-8-9-5-3-2 2h-5l-2-6z" fill="#C9BDAB"/>
<path transform="translate(961,1195)" d="m0 0 3 1v6l-6 7-5-2 1-5 5-6z" fill="#847E7E"/>
<path transform="translate(716,510)" d="m0 0 7 4v2l4 2 8 7 2 1h15l10-3-3 3-7 3-10 1-6-1v-2l-4-1v-2l-4-2-10-9-2-1z" fill="#969086"/>
<path transform="translate(654,806)" d="m0 0 1 4 7 2h35l-1 2-16 1h-24v-2l-3-2z" fill="#79625B"/>
<path transform="translate(762,623)" d="m0 0h3l-1 6-3 8-5 4-1-4 4-11z" fill="#847C7C"/>
<path transform="translate(792,508)" d="m0 0 3 1v8l-1 7-2 1v-2l-2-1h2v-3h-5l-3-2 1-4 1-2h2v5h3v-7z" fill="#959096"/>
<path transform="translate(697,508)" d="m0 0 4 1v3l6-1 1 5-5 1v2l-5-1-1-1z" fill="#837C8E"/>
<path transform="translate(730,436)" d="m0 0 2 4v5l-1 3 1 7-4-2-6-12 1-2 4 2v3h2l-1-4z" fill="#6C4031"/>
<path transform="translate(887,283)" d="m0 0 7 3-2 3h-7l-7 3-1 2-5-1v-2z" fill="#997F51"/>
<path transform="translate(907,1256)" d="m0 0 4 1-2 5-7 6-3-1 1-6z" fill="#837C7B"/>
<path transform="translate(769,821)" d="m0 0 44 1v1l-34 1v1h-11l-1-2h2z" fill="#6C4031"/>
<path transform="translate(758,624)" d="m0 0v3l-3 1-1 5-2-2h-13v7h-1l-1-8-3-3h17l6-2z" fill="#735E60"/>
<path transform="translate(701,594)" d="m0 0h1l-1 14-3 18-3 1 3-22 2-10z" fill="#100B0E"/>
<path transform="translate(829,792)" d="m0 0 3 3v2l4 2 1 3 3 1-4 1-3-4-6-1-6 1-3-1v-2l10-2z" fill="#4B4357"/>
<path transform="translate(862,416)" d="m0 0 6 1 2 4 1 11-3 13h-2l1-8v-13l-3-6z" fill="#AA9470"/>
<path transform="translate(635,383)" d="m0 0 16 7 2 1v2l5 1v1l-10-1-5-2-2-3-3-1-2-2z" fill="#988644"/>
<path transform="translate(666,792)" d="m0 0 2 4 32 2v1l-20 1-5 1-10-3z" fill="#716771"/>
<path transform="translate(985,1111)" d="m0 0h2l-2 5-5 4-6-1-2-1v-2z" fill="#79717A"/>
<path transform="translate(641,707)" d="m0 0h15l-3 4v2l2 2h-2l-1 2-1-1v-6l-9 2-2 5-1-3 3-5z" fill="#68413A"/>
<path transform="translate(779,579)" d="m0 0h1v12l-3 13h-2l1-14 2-10z" fill="#6B3F32"/>
<path transform="translate(790,403)" d="m0 0h2l-1 4 2 2 5-1v2l-10 5-2-3v-6z" fill="#967F47"/>
<path transform="translate(732,700)" d="m0 0h8v4l5 1v2l-8-2h-12l2-1 1-3z" fill="#543A31"/>
<path transform="translate(735,665)" d="m0 0h30v1h-7v2h-17v-2h-6z" fill="#6C4031"/>
<path transform="translate(649,641)" d="m0 0 29 1v1l-19 1h-13l-12-1v-1z" fill="#282525"/>
<path transform="translate(770,484)" d="m0 0 4 1-9 4-14 5h-5l3-2 17-7z" fill="#AE9673"/>
<path transform="translate(717,619)" d="m0 0 1 2h2l5 10 2 1 2 5-3 1-6-3 1-2-2-8-2-3z" fill="#978248"/>
<path transform="translate(812,485)" d="m0 0 7 1 7 2v1h-15l-8 7v-3l3-5z" fill="#A9916F"/>
<path transform="translate(851,413)" d="m0 0h9v2l-21 3h-5l2-3z" fill="#191417"/>
<path transform="translate(885,288)" d="m0 0 6 1-5 5-5 2h-3l-1-4z" fill="#804835"/>
<path transform="translate(660,426)" d="m0 0 7 1 6 3 1 3-7 2-4-5-3-2z" fill="#A98A6A"/>
<path transform="translate(592,278)" d="m0 0 5 2 5 5h-2v2l-5-1-9-5-1-2 6 2z" fill="#906D40"/>
<path transform="translate(612,349)" d="m0 0 3 1-1 1 1 5-4 5h-3v-9z" fill="#7E4233"/>
<path transform="translate(841,707)" d="m0 0h11l1 6-3-2-5-1v6h-3l-3-3 3-1 1-4z" fill="#664037"/>
<path transform="translate(877,1286)" d="m0 0 7 3-1 4-4 3-3-1v-8z" fill="#837C7E"/>
<path transform="translate(826,706)" d="m0 0h3l2 3-1 23h-2v-25z" fill="#5A4662"/>
<path transform="translate(792,632)" d="m0 0h3l1 11h-5l-2-3 1-4h2z" fill="#A58C6C"/>
<path transform="translate(643,1307)" d="m0 0 3 1-1 8h-3l-4-3 1-4z" fill="#817878"/>
<path transform="translate(752,592)" d="m0 0h6l3 3-1 4-6 1-2-4z" fill="#6F6371"/>
<path transform="translate(717,794)" d="m0 0 8 1 4 2-18 2-4-3z" fill="#676281"/>
<path transform="translate(724,793)" d="m0 0h11l9 1-2 2h-17l-3-2z" fill="#694F56"/>
<path transform="translate(762,614)" d="m0 0v3l-6 3-4 1h-10v-1l7-1v-2z" fill="#7E7678"/>
<path transform="translate(743,611)" d="m0 0h1v6l-3 3h-7l-4-1-2 1-1-5 15 1z" fill="#7B6660"/>
<path transform="translate(733,593)" d="m0 0h4v6l-2 1h-6v-4z" fill="#756871"/>
<path transform="translate(725,824)" d="m0 0h33l-8 4-7-1-4-1-14-1z" fill="#6C4031"/>
<path transform="translate(891,643)" d="m0 0h7l4 3 1 7-3-1-5-6-4-1z" fill="#0C0908"/>
<path transform="translate(701,499)" d="m0 0 6 2 8 7-3 1v3l-8-9-3-2z" fill="#A28D76"/>
<path transform="translate(797,497)" d="m0 0 4 1-2 5-6-1v-2l-7 1 4-3z" fill="#AF9A7E"/>
<path transform="translate(834,707)" d="m0 0h7l2 1v5l-2 1-5-2-1-2-4-2z" fill="#0C0A0B"/>
<path transform="translate(856,466)" d="m0 0 2 3-7 8-4 3-2-1z" fill="#886E52"/>
<path transform="translate(696,481)" d="m0 0 1 3-1 2 5-2h5v2l-13 3-1-4 1-2h3z" fill="#AE9673"/>
<path transform="translate(639,471)" d="m0 0 10 10v2l5 2 3 4-5-2-4-2-1-4-4-2-4-6z" fill="#A24837"/>
<path transform="translate(669,705)" d="m0 0h14l-1 2h-3v2l-10-1z" fill="#46322E"/>
<path transform="translate(871,303)" d="m0 0h2l1 4-3 4h-2v2h-2l-1-5z" fill="#93714D"/>
<path transform="translate(751,802)" d="m0 0 6 4 1 3 3 2-3 3h-2l-5-10z" fill="#3D251D"/>
<path transform="translate(655,423)" d="m0 0 7 2 1 2-2 1 5 5 1 5-4-4-7-8z" fill="#8A5140"/>
<path transform="translate(657,802)" d="m0 0 1 3-4 2v4l3 2-4 1-3-3v-5l6-3z" fill="#57362B"/>
<path transform="translate(860,382)" d="m0 0 2 4-3 3 1 2-6 1 2-7h2l1-2z" fill="#968244"/>
<path transform="translate(735,793)" d="m0 0h16l-2 5h-2l-1-2-2 3v-3l-9-2z" fill="#6B463E"/>
<path transform="translate(703,582)" d="m0 0h1l-1 16-3-3 1-9z" fill="#3C2621"/>
<path transform="translate(697,508)" d="m0 0 4 1-1 10-3-2z" fill="#F9F9F9"/>
<path transform="translate(784,424)" d="m0 0 2 1-10 9-4 4 2-5 5-6h2v-2z" fill="#47396F"/>
<path transform="translate(755,702)" d="m0 0h8l-4 3-9 2 2-4z" fill="#3D2925"/>
<path transform="translate(792,508)" d="m0 0 3 1v8l-2 2-2-6z" fill="#FDFDFD"/>
<path transform="translate(663,705)" d="m0 0h6v2h-3v12h-1v-11l-4-1z" fill="#0B0605"/>
<path transform="translate(840,414)" d="m0 0h5l-1 3-10 1 2-3z" fill="#171011"/>
<path transform="translate(747,707)" d="m0 0 3 1-1 6h-2v5h-1v-9l-1-2z" fill="#452C27"/>
</svg>
